<?xml version="1.0" encoding="utf-8"?>
<!-- Generator: Adobe Illustrator 20.0.0, SVG Export Plug-In . SVG Version: 6.00 Build 0)  -->
<svg version="1.1" id="Layer_1" xmlns="http://www.w3.org/2000/svg" xmlns:xlink="http://www.w3.org/1999/xlink" x="0px" y="0px"
	 viewBox="0 0 730 58" style="enable-background:new 0 0 730 58;" xml:space="preserve">
<style type="text/css">
	.st0{fill:#0A63AC;}
	.st1{fill:#E11D41;}
</style>
<g id="Flag">
	<path class="st0" d="M339,28c-3.1-1.4-7.6-3.4-10.3-4.4c9-5.2,17.9-9.5,28.3-13.2c2.8,0.9,6.8,2.2,9.9,3.3
		C358.4,17,347.6,22.5,339,28 M352.5,34.6c7.8-5.7,17.4-11.7,26.4-16.2c-3.4-1.3-7.3-2.8-9.9-3.8c-7.4,2.9-18.1,8.6-27.3,14.7
		C345.4,30.9,348.9,32.6,352.5,34.6"/>
	<path class="st1" d="M379,1.3c-3,0.7-7.4,1.8-10.2,2.6c6.8,1.6,17.6,4.8,24.9,7.8c3.1-1.2,7-2.5,10.1-3.4
		C395,4.8,384.1,2.3,379,1.3 M355.3,8.5c6.4,1.7,16.6,5.2,25.6,8.8c3.6-1.8,6.8-3.2,10.4-4.7c-8.6-3.5-19.4-6.7-24.8-8.1
		C362.5,5.7,358.8,7,355.3,8.5 M352.9,38.1c4,1.9,9.2,5.1,12.8,7.3c17.6-15,39.3-27,56.1-32.5c-5.1-2.1-9.8-3.8-13-4.8
		C389.3,13.7,368.1,26.1,352.9,38.1"/>
	<path class="st1" d="M424.1,13.9c-19.1,6.9-40.3,20.5-54.9,33.7c4.8,3,9.9,6.4,14.6,9.7c11.7-11.1,34.4-28.9,54.4-37
		C433,17.7,427.9,15.5,424.1,13.9"/>
	<path class="st1" d="M392.3,52.7c0-1.1,0.4-2,1.2-2.8c0.8-0.8,1.7-1.2,2.8-1.2c1.1,0,2,0.4,2.8,1.2c0.8,0.8,1.2,1.7,1.2,2.8
		c0,1.1-0.4,2-1.2,2.8c-0.8,0.8-1.7,1.2-2.8,1.2c-1.1,0-2-0.4-2.8-1.2C392.7,54.7,392.3,53.8,392.3,52.7L392.3,52.7z M393.3,52.7
		c0,0.8,0.3,1.6,0.9,2.2c0.6,0.6,1.3,0.9,2.1,0.9c0.8,0,1.5-0.3,2.1-0.9c0.6-0.6,0.9-1.3,0.9-2.2c0-0.8-0.3-1.6-0.9-2.2
		c-0.6-0.6-1.3-0.9-2.1-0.9c-0.8,0-1.5,0.3-2.1,0.9C393.6,51.1,393.3,51.8,393.3,52.7L393.3,52.7z M394.7,50.4h1.5
		c0.4,0,0.7,0,0.9,0.1s0.4,0.2,0.6,0.4c0.2,0.2,0.3,0.5,0.3,0.8c0,0.6-0.2,1-0.7,1.2l0.8,2h-1.4l-0.6-1.8h-0.3v1.8h-1.2L394.7,50.4
		L394.7,50.4z M395.9,51.2v1.1h0.3c0.4,0,0.6-0.2,0.6-0.6c0-0.4-0.2-0.5-0.6-0.5H395.9z"/>
</g>
<path id="Merchant_Services" class="st1" d="M446.5,14.8h8.5l3.7,16.2l4.2-16.2h8.2v26.3h-5.4v-22l-5.4,22h-4.2l-4.9-22v22h-4.7
	V14.8L446.5,14.8z M490.5,32.3h-10.2v1.1c0,1.7,0.2,2.9,0.7,3.5c0.5,0.6,1.1,0.9,1.9,0.9c1.7,0,2.6-1.1,2.8-3.3l4.8,0.3
	c-0.9,4.5-3.4,6.8-7.7,6.8c-2.6,0-4.7-0.9-6-2.7c-1.4-1.8-2.1-4.2-2.1-7.2c0-3.4,0.7-6,2.2-7.7c1.5-1.8,3.4-2.7,5.9-2.7
	c2.2,0,4,0.8,5.5,2.4C489.8,25.1,490.5,28,490.5,32.3L490.5,32.3z M485.4,29.1c0-0.2,0-0.4,0-0.5c0-2.5-0.8-3.8-2.5-3.8
	c-1.7,0-2.5,1.4-2.5,4.3L485.4,29.1L485.4,29.1z M493.7,21.6h4.8v4.7c0.9-3.3,2.4-5,4.6-5c0.3,0,0.6,0,0.9,0.1v5.3
	c-0.4,0-0.7-0.1-0.9-0.1c-2.6,0-4,2-4,6v8.4h-5.4V21.6L493.7,21.6z M520.7,28.8l-5,0.2c-0.1-1.2-0.3-2.1-0.6-2.7s-0.8-0.9-1.6-0.9
	c-1.8,0-2.7,1.9-2.7,5.7c0,2.2,0.2,3.8,0.7,4.7c0.4,0.9,1.1,1.3,2,1.3c1.4,0,2.1-1.2,2.2-3.6l5,0.3c-0.5,5.1-3,7.7-7.6,7.7
	c-2.5,0-4.4-0.8-5.8-2.5c-1.3-1.7-2-4.2-2-7.5c0-3.3,0.7-5.8,2.1-7.6c1.4-1.7,3.3-2.6,5.9-2.6C517.8,21.2,520.3,23.7,520.7,28.8
	L520.7,28.8z M523.7,14.8h5.4v8.9c1-1.6,2.6-2.5,4.8-2.5c1.3,0,2.4,0.3,3.1,0.9s1.2,1.4,1.5,2.3c0.2,0.9,0.3,2.3,0.3,4.1v12.5h-5.4
	V28.6c0-1.3-0.1-2.1-0.4-2.5c-0.2-0.4-0.7-0.6-1.5-0.6c-0.7,0-1.3,0.2-1.8,0.6c-0.4,0.4-0.7,1.3-0.7,2.7v12.4h-5.4L523.7,14.8
	L523.7,14.8z M547.7,27.8l-5.1-0.5c0.2-2,1.1-3.5,2.5-4.5c1.4-1.1,3.2-1.6,5.4-1.6c1.8,0,3.3,0.4,4.4,1.1c1.1,0.7,1.8,1.5,2.1,2.4
	c0.3,0.9,0.4,2.4,0.4,4.3v7.8c0,2.4,0.1,3.9,0.3,4.3h-5c-0.2-0.5-0.3-1.5-0.3-3c-1.2,2.3-3,3.4-5.3,3.4c-1.5,0-2.7-0.5-3.7-1.4
	c-0.9-0.9-1.4-2.2-1.4-4c0-2.2,0.7-3.8,2.2-5c1.4-1.2,4.1-1.9,7.9-2.1v-0.7c0-1.3-0.1-2.2-0.4-2.7c-0.3-0.5-0.8-0.7-1.5-0.7
	C548.6,24.9,547.9,25.8,547.7,27.8L547.7,27.8z M551.9,31.8c-1.6,0.2-2.7,0.5-3.4,1.1c-0.7,0.5-1,1.4-1,2.6c0,1.6,0.6,2.5,1.8,2.5
	c0.7,0,1.2-0.4,1.8-1.1c0.5-0.7,0.8-2.1,0.8-4.1V31.8C551.9,31.8,551.9,31.8,551.9,31.8z M561.3,21.6h5.1v2.7c0.9-2,2.5-3,4.9-3
	c1.3,0,2.3,0.3,3.2,0.9c0.8,0.6,1.4,1.3,1.6,2.2s0.4,2.2,0.4,4.1v12.8H571V28.3c0-1.3-0.2-2.1-0.5-2.4c-0.3-0.3-0.8-0.5-1.3-0.5
	c-1,0-1.6,0.3-1.9,0.9c-0.3,0.6-0.5,1.7-0.5,3.3v11.4h-5.4L561.3,21.6L561.3,21.6z M581,15.7l5.3-0.2v6.1h3.6v4.3h-3.6v7.2
	c0,1.3,0,2.2,0.1,2.6c0.1,0.4,0.3,0.7,0.6,1c0.3,0.3,0.9,0.4,1.6,0.4c0.4,0,0.9,0,1.5,0v4.1c-1.2,0.3-2.3,0.4-3.3,0.4
	c-1.6,0-2.9-0.3-3.8-0.9c-0.9-0.6-1.4-1.4-1.7-2.4c-0.2-0.9-0.4-2.5-0.4-4.5v-7.7h-2.2v-4.3h2.2L581,15.7L581,15.7z M616.2,20.5
	l-4.8,1.8c-0.7-2.2-1.9-3.3-3.7-3.3c-0.8,0-1.5,0.2-2,0.7c-0.5,0.5-0.7,1-0.7,1.7c0,0.7,0.3,1.3,0.9,1.8c0.6,0.4,1.8,1,3.7,1.7
	c1.7,0.6,3,1.3,4,1.9s1.8,1.5,2.4,2.5c0.6,1.1,0.9,2.3,0.9,3.7c0,2.5-0.8,4.5-2.5,6c-1.7,1.6-3.9,2.4-6.8,2.4
	c-4.8,0-7.8-2.4-9.1-7.2l5.1-1.4c0.6,2.6,2,4,4.2,4c1,0,1.8-0.3,2.4-0.8c0.6-0.5,0.9-1.2,0.9-2.1c0-0.6-0.2-1.2-0.7-1.7
	c-0.4-0.5-1.4-1-3-1.6c-2-0.7-3.5-1.4-4.5-2c-1-0.6-1.8-1.4-2.4-2.5c-0.6-1.1-1-2.3-1-3.7c0-2.4,0.8-4.3,2.3-5.8
	c1.5-1.5,3.5-2.3,6-2.3C612.2,14.4,615.1,16.5,616.2,20.5L616.2,20.5z M634.8,32.3h-10.2v1.1c0,1.7,0.2,2.9,0.7,3.5
	c0.5,0.6,1.1,0.9,1.9,0.9c1.7,0,2.6-1.1,2.8-3.3l4.8,0.3c-0.9,4.5-3.4,6.8-7.7,6.8c-2.6,0-4.7-0.9-6-2.7c-1.4-1.8-2.1-4.2-2.1-7.2
	c0-3.4,0.7-6,2.2-7.7c1.5-1.8,3.4-2.7,5.9-2.7c2.2,0,4,0.8,5.5,2.4C634,25.2,634.7,28.1,634.8,32.3L634.8,32.3z M629.6,29.1
	c0-0.2,0-0.4,0-0.5c0-2.5-0.8-3.8-2.5-3.8c-1.7,0-2.5,1.4-2.5,4.3H629.6z M637.9,21.6h4.8v4.7c0.9-3.3,2.4-5,4.6-5
	c0.3,0,0.6,0,0.9,0.1v5.3c-0.4,0-0.7-0.1-0.9-0.1c-2.6,0-4,2-4,6v8.4h-5.4L637.9,21.6L637.9,21.6z M649,21.6h5.2l2.7,11.5l2.7-11.5
	h4.5l-5.3,19.5h-4.3L649,21.6L649,21.6z M671,20h-5.5v-5.4h5.5L671,20L671,20z M665.6,21.6h5.4v19.5h-5.4V21.6L665.6,21.6z
	 M689.5,28.8l-5,0.2c-0.1-1.2-0.3-2.1-0.6-2.7c-0.3-0.6-0.8-0.9-1.6-0.9c-1.8,0-2.7,1.9-2.7,5.7c0,2.2,0.2,3.8,0.7,4.7
	c0.4,0.9,1.1,1.3,2,1.3c1.4,0,2.1-1.2,2.2-3.6l5.1,0.3c-0.4,5.1-3,7.7-7.6,7.7c-2.5,0-4.4-0.8-5.7-2.5c-1.3-1.7-2-4.2-2-7.5
	c0-3.3,0.7-5.8,2.1-7.6c1.4-1.7,3.3-2.6,5.9-2.6C686.7,21.3,689.2,23.8,689.5,28.8L689.5,28.8z M707.4,32.3h-10.2v1.1
	c0,1.7,0.2,2.9,0.7,3.5c0.5,0.6,1.1,0.9,1.9,0.9c1.7,0,2.6-1.1,2.8-3.3l4.8,0.3c-0.9,4.5-3.4,6.8-7.7,6.8c-2.6,0-4.7-0.9-6-2.7
	c-1.4-1.8-2.1-4.2-2.1-7.2c0-3.4,0.7-6,2.2-7.7c1.5-1.8,3.4-2.7,5.9-2.7c2.2,0,4.1,0.8,5.5,2.4C706.7,25.2,707.5,28.1,707.4,32.3
	L707.4,32.3z M702.3,29.2c0-0.2,0-0.4,0-0.5c0-2.5-0.8-3.8-2.5-3.8c-1.7,0-2.5,1.4-2.5,4.3L702.3,29.2L702.3,29.2L702.3,29.2z
	 M723.5,26.3l-3.9,1.2c-0.5-1.8-1.5-2.6-2.9-2.6c-1.1,0-1.7,0.6-1.7,1.7c0,0.6,0.2,1.1,0.6,1.5c0.4,0.3,1.3,0.7,2.6,1.2
	c1.5,0.5,2.6,1,3.3,1.4c0.7,0.4,1.3,1,1.8,1.8c0.5,0.8,0.7,1.7,0.7,2.8c0,1.8-0.6,3.3-1.9,4.5c-1.3,1.2-3.1,1.8-5.4,1.8
	c-4.4,0-6.8-1.9-7.3-5.8l4.3-0.7c0.4,1.9,1.4,2.9,3.1,2.9c1.4,0,2.2-0.6,2.2-1.8c0-0.6-0.2-1.1-0.6-1.5c-0.4-0.3-1.2-0.7-2.5-1.1
	c-2.2-0.7-3.8-1.6-4.6-2.6c-0.8-1-1.3-2.2-1.3-3.5c0-1.9,0.7-3.4,2-4.5c1.3-1.1,3-1.7,4.9-1.7C720.4,21.3,722.6,23,723.5,26.3
	L723.5,26.3z"/>
<path id="Bank_of_America" class="st0" d="M6,7h11.7c2.7,0,4.8,0.2,6.2,0.7c1.4,0.4,2.6,1.4,3.5,2.9c0.9,1.5,1.4,3.3,1.4,5.5
	c0,3.8-1.6,6.3-4.9,7.4c3.9,1.4,5.8,4.2,5.8,8.4c0,2.2-0.5,4.1-1.6,5.6c-1.1,1.5-2.4,2.5-3.9,3.1c-1.5,0.5-3.7,0.8-6.6,0.8H6V7L6,7z
	 M13.2,20.8h2.4c2.4,0,3.9-0.4,4.6-1.3c0.6-0.9,0.9-1.9,0.9-3c0-1-0.3-2-0.9-2.8c-0.6-0.8-2-1.2-4-1.2h-3L13.2,20.8L13.2,20.8z
	 M13.2,35.3h3.7c3.5,0,5.2-1.5,5.2-4.5c0-1.7-0.4-2.8-1.3-3.5c-0.9-0.7-2.2-1-3.9-1h-3.7V35.3z M40.9,23.9l-6.7-0.7
	c0.3-2.5,1.4-4.5,3.2-5.9c1.8-1.4,4.2-2.1,7-2.1c2.4,0,4.3,0.5,5.7,1.4c1.4,0.9,2.3,2,2.7,3.2c0.4,1.2,0.6,3.1,0.6,5.6v10.1
	c0,3.1,0.1,5,0.4,5.6h-6.6c-0.2-0.7-0.4-2-0.4-3.9c-1.5,2.9-3.9,4.4-6.9,4.4c-2,0-3.6-0.6-4.8-1.8c-1.2-1.2-1.9-2.9-1.9-5.2
	c0-2.8,0.9-5,2.8-6.6c1.9-1.5,5.3-2.5,10.2-2.8v-1c0-1.7-0.2-2.9-0.5-3.5c-0.3-0.7-1-1-2-1C42.1,20,41.1,21.3,40.9,23.9L40.9,23.9z
	 M46.4,29.1c-2.1,0.2-3.5,0.7-4.4,1.4c-0.9,0.7-1.3,1.8-1.3,3.4c0,2.1,0.8,3.2,2.4,3.2c0.9,0,1.6-0.5,2.3-1.4c0.7-1,1-2.7,1-5.3
	L46.4,29.1L46.4,29.1z M58.6,15.9h6.7v3.5c1.2-2.6,3.3-4,6.3-4c1.6,0,3,0.4,4.1,1.1c1.1,0.7,1.8,1.7,2.1,2.9
	c0.3,1.2,0.4,2.9,0.4,5.3v16.6h-7.1V24.6c0-1.7-0.2-2.8-0.7-3.2c-0.4-0.4-1-0.6-1.8-0.6c-1.3,0-2.1,0.4-2.5,1.2
	c-0.4,0.8-0.6,2.2-0.6,4.4v14.8h-7.1L58.6,15.9L58.6,15.9z M83.1,7h7.1v18.7l7.1-9.8h6.4l-6.4,8.5l7,16.8h-7.6l-3.9-11.7l-2.6,3.5
	v8.2h-7.1L83.1,7L83.1,7z M135.7,28.5c0,8.8-3.4,13.2-10.3,13.2c-6.8,0-10.3-4.4-10.3-13.2c0-8.8,3.4-13.2,10.3-13.2
	C132.3,15.4,135.8,19.8,135.7,28.5L135.7,28.5z M128.5,28.5c0-3.2-0.2-5.4-0.7-6.5c-0.4-1.1-1.2-1.7-2.3-1.7c-1.1,0-1.8,0.5-2.3,1.6
	c-0.5,1.1-0.7,3.3-0.7,6.6c0,3.1,0.2,5.2,0.6,6.4c0.4,1.2,1.2,1.8,2.4,1.8c1.1,0,1.9-0.6,2.3-1.8C128.2,33.8,128.5,31.6,128.5,28.5
	L128.5,28.5z M147.8,15.9h4.5v5.6h-4.5v19.7h-6.8V21.4h-2.9v-5.6h2.9c0-2.5,0.2-4.4,0.6-5.6C142,9,142.8,7.9,144,7
	c1.2-0.9,2.9-1.4,5-1.4c1.2,0,2.4,0.1,3.6,0.2v5.5c-0.6-0.1-1.1-0.1-1.6-0.1c-1.4,0-2.2,0.3-2.6,0.9C148,12.7,147.8,13.9,147.8,15.9
	L147.8,15.9z M171,7h7.6l9.8,34.2h-7.7l-1.7-7.1h-9.6l-1.7,7.1h-6.9L171,7z M177.5,28.2l-3.5-14l-3.3,14H177.5z M190.5,15.9h6.7v3.5
	c1.2-2.6,3.2-4,6.1-4c3,0,4.8,1.3,5.5,4c1.1-2.6,3.2-4,6.1-4c1.7,0,3,0.3,4,0.9c1,0.6,1.7,1.4,2.1,2.5c0.4,1,0.6,3,0.6,5.9v16.5
	h-7.1V25.4c0-1.9-0.1-3.1-0.4-3.7c-0.3-0.6-0.9-0.8-1.8-0.8c-1.1,0-1.8,0.4-2.2,1.1c-0.3,0.7-0.5,2.2-0.5,4.5v14.7h-7.1v-16
	c0-1.8-0.1-3-0.4-3.5c-0.3-0.5-0.8-0.8-1.8-0.8c-1.1,0-1.9,0.4-2.3,1.2c-0.4,0.8-0.6,2.3-0.6,4.4v14.7h-7.1L190.5,15.9L190.5,15.9z
	 M245.8,29.7h-13.3v1.4c0,2.3,0.3,3.8,0.9,4.5c0.6,0.8,1.4,1.1,2.4,1.1c2.1,0,3.4-1.4,3.6-4.3l6.3,0.4c-1.1,5.9-4.5,8.8-10,8.8
	c-3.4,0-6-1.2-7.8-3.5c-1.8-2.3-2.7-5.4-2.7-9.3c0-4.4,0.9-7.7,2.8-10.1c1.9-2.3,4.4-3.5,7.6-3.5c2.9,0,5.3,1,7.2,3.1
	S245.8,24.3,245.8,29.7L245.8,29.7z M239.2,25.6c0-0.3,0-0.5,0-0.7c0-3.3-1.1-4.9-3.3-4.9c-2.2,0-3.3,1.9-3.3,5.6H239.2z
	 M249.9,15.9h6.2V22c1.1-4.3,3.1-6.4,6-6.4c0.3,0,0.8,0,1.2,0.1v6.9c-0.5-0.1-0.9-0.1-1.2-0.1c-3.4,0-5.2,2.6-5.2,7.8v10.9H250
	L249.9,15.9L249.9,15.9z M272.8,13.8h-7.2v-7h7.2V13.8z M265.7,15.9h7.1v25.3h-7.1V15.9z M296.8,25.2l-6.6,0.2
	c-0.1-1.6-0.4-2.7-0.8-3.5c-0.4-0.8-1.1-1.2-2-1.2c-2.4,0-3.6,2.5-3.6,7.5c0,2.9,0.3,4.9,0.9,6.1c0.6,1.1,1.4,1.7,2.6,1.7
	c1.8,0,2.7-1.6,2.9-4.7l6.6,0.4c-0.6,6.6-3.9,10-9.9,10c-3.3,0-5.7-1.1-7.5-3.3c-1.7-2.2-2.6-5.5-2.6-9.8c0-4.3,0.9-7.6,2.7-9.8
	c1.8-2.2,4.3-3.4,7.6-3.4C293.1,15.3,296.3,18.6,296.8,25.2L296.8,25.2L296.8,25.2z M307.4,23.9l-6.7-0.7c0.3-2.5,1.4-4.5,3.2-5.9
	c1.8-1.4,4.2-2.1,7-2.1c2.4,0,4.3,0.5,5.7,1.4c1.4,0.9,2.3,2,2.7,3.2c0.4,1.2,0.6,3.1,0.6,5.6v10.1c0,3.1,0.1,5,0.4,5.6h-6.6
	c-0.2-0.7-0.4-2-0.4-3.9c-1.5,2.9-3.9,4.4-6.9,4.4c-2,0-3.6-0.6-4.8-1.8c-1.2-1.2-1.9-2.9-1.9-5.2c0-2.8,0.9-5,2.8-6.6
	c1.9-1.5,5.3-2.5,10.2-2.8v-1c0-1.7-0.2-2.9-0.5-3.5c-0.3-0.7-1-1-2-1C308.6,20,307.6,21.3,307.4,23.9L307.4,23.9z M312.9,29.1
	c-2.1,0.2-3.5,0.7-4.4,1.4c-0.9,0.7-1.3,1.8-1.3,3.4c0,2.1,0.8,3.2,2.3,3.2c0.8,0,1.6-0.5,2.3-1.4c0.7-1,1-2.7,1-5.3L312.9,29.1
	L312.9,29.1z"/>
<g>
</g>
<g>
</g>
<g>
</g>
<g>
</g>
<g>
</g>
<g>
</g>
</svg>
