<?xml version="1.0" encoding="utf-8"?>
<!-- Generator: Adobe Illustrator 16.0.0, SVG Export Plug-In . SVG Version: 6.00 Build 0)  -->
<!DOCTYPE svg PUBLIC "-//W3C//DTD SVG 1.1//EN" "http://www.w3.org/Graphics/SVG/1.1/DTD/svg11.dtd">
<svg version="1.1" id="Layer_1" xmlns="http://www.w3.org/2000/svg" xmlns:xlink="http://www.w3.org/1999/xlink" x="0px" y="0px"
	 width="447px" height="133px" viewBox="0 0 447 133" enable-background="new 0 0 447 133" xml:space="preserve">
<g>
	<path fill="#0362AB" d="M341.69,34.547c-3.125-1.404-7.715-3.44-10.48-4.44c9.073-5.23,18.18-9.585,28.692-13.35
		c2.817,0.866,6.893,2.204,10.043,3.365C361.42,23.308,350.473,28.919,341.69,34.547 M355.351,41.165
		c7.87-5.74,17.641-11.886,26.761-16.45c-3.471-1.367-7.351-2.87-10.061-3.846c-7.47,2.95-18.38,8.68-27.689,14.87
		c3.8,1.729,7.41,3.45,11,5.42"/>
	<path fill="#E21C40" d="M382.232,7.42c-3.084,0.665-7.525,1.833-10.317,2.638c6.85,1.665,17.798,4.914,25.257,7.91
		c3.187-1.229,7.092-2.582,10.188-3.47C398.472,11.011,387.43,8.408,382.232,7.42 M358.277,14.703
		c6.457,1.747,16.813,5.25,25.981,8.942c3.601-1.775,6.94-3.277,10.521-4.718c-8.7-3.563-19.65-6.813-25.181-8.2
		c-4.05,1.207-7.81,2.472-11.34,3.976 M355.829,44.763c4.05,1.965,9.33,5.186,12.97,7.41c17.851-15.23,39.84-27.373,56.851-32.895
		c-5.2-2.095-9.91-3.892-13.171-4.866c-19.789,5.543-41.229,18.15-56.67,30.352"/>
	<path fill="#E21C40" d="M427.956,20.23c-19.406,6.95-40.845,20.746-55.634,34.133c4.838,3.06,10.02,6.53,14.774,9.816
		c11.809-11.2,34.854-29.34,55.11-37.55c-5.227-2.6-10.35-4.8-14.25-6.41 M6.61,99.359h8.594l3.77,16.468l4.238-16.47h8.34v26.66
		h-5.488V103.7l-5.45,22.325h-4.257l-4.98-22.324v22.33H6.61v-26.66V99.359z M51.278,117.077H40.946v1.09
		c0,1.76,0.24,2.94,0.72,3.54s1.11,0.891,1.888,0.891c1.673,0,2.614-1.121,2.822-3.36l4.902,0.313
		c-0.872,4.583-3.48,6.875-7.823,6.875c-2.68,0-4.714-0.905-6.106-2.716s-2.09-4.23-2.09-7.27c0-3.431,0.74-6.041,2.21-7.84
		c1.47-1.801,3.45-2.711,5.94-2.711c2.23,0,4.1,0.791,5.61,2.391c1.5,1.59,2.25,4.52,2.25,8.779L51.278,117.077z M46.083,113.887
		c0.013-0.236,0.02-0.42,0.02-0.55c0-2.54-0.856-3.81-2.568-3.81c-1.687,0-2.536,1.449-2.55,4.353h5.098V113.887z M54.5,106.297
		h4.844v4.76c0.872-3.345,2.428-5.02,4.668-5.02c0.273,0,0.586,0.033,0.938,0.1v5.37c-0.404-0.05-0.71-0.077-0.918-0.077
		c-2.683,0-4.023,2.03-4.023,6.094v8.496H54.5V106.3V106.297z M81.883,113.557l-5.117,0.195c-0.078-1.22-0.273-2.13-0.586-2.75
		s-0.84-0.93-1.582-0.93c-1.85,0-2.773,1.939-2.773,5.82c0,2.252,0.225,3.83,0.674,4.727s1.11,1.35,2,1.35
		c1.38,0,2.13-1.22,2.26-3.65l5.11,0.33c-0.46,5.181-3.03,7.771-7.73,7.771c-2.54,0-4.48-0.86-5.83-2.569
		c-1.35-1.711-2.02-4.261-2.02-7.65c0-3.36,0.7-5.92,2.11-7.68c1.41-1.761,3.39-2.641,5.94-2.641c4.6,0,7.1,2.551,7.51,7.65
		L81.883,113.557z M84.873,99.357h5.507v9.023c0.99-1.66,2.604-2.5,4.844-2.5c1.34,0,2.4,0.32,3.174,0.94s1.266,1.42,1.475,2.38
		c0.208,0.949,0.313,2.34,0.313,4.17v12.65h-5.508v-12.67c0-1.291-0.12-2.15-0.36-2.57c-0.242-0.42-0.74-0.641-1.495-0.641
		c-0.742,0-1.335,0.211-1.777,0.61c-0.443,0.41-0.664,1.33-0.664,2.76v12.521h-5.508v-26.66L84.873,99.357z M109.227,112.561
		l-5.215-0.5c0.247-1.979,1.09-3.5,2.53-4.569c1.437-1.07,3.25-1.601,5.438-1.601c1.85,0,3.333,0.36,4.453,1.07
		c1.12,0.71,1.826,1.54,2.12,2.471c0.294,0.93,0.438,2.39,0.438,4.359v7.87c0,2.45,0.11,3.909,0.34,4.38h-5.11
		c-0.18-0.53-0.27-1.54-0.27-3.02c-1.21,2.289-3.01,3.439-5.4,3.439c-1.53,0-2.78-0.46-3.74-1.37c-0.96-0.909-1.44-2.26-1.44-4.014
		c0-2.2,0.73-3.9,2.18-5.103c1.45-1.203,4.11-1.921,7.96-2.16v-0.75c0-1.311-0.13-2.223-0.4-2.73c-0.26-0.506-0.78-0.76-1.54-0.76
		c-1.4,0-2.17,1.01-2.31,3.027L109.227,112.561z M113.485,116.611c-1.602,0.189-2.744,0.539-3.428,1.07
		c-0.684,0.529-1.025,1.409-1.025,2.659c0,1.66,0.612,2.5,1.836,2.5c0.664,0,1.266-0.37,1.807-1.12c0.54-0.75,0.81-2.119,0.81-4.119
		v-0.971V116.611z M123.035,106.301h5.216v2.7c0.92-2.05,2.56-3.08,4.95-3.08c1.29,0,2.36,0.29,3.2,0.87
		c0.84,0.58,1.38,1.32,1.61,2.22c0.23,0.9,0.36,2.271,0.36,4.11v12.93h-5.51V113.1c0-1.328-0.17-2.147-0.5-2.459
		c-0.34-0.314-0.79-0.471-1.36-0.471c-0.99,0-1.64,0.303-1.95,0.908c-0.31,0.605-0.47,1.734-0.47,3.39v11.563h-5.5V106.3
		L123.035,106.301z M142.938,100.251l5.352-0.17v6.229h3.633v4.34h-3.633v7.25c0,1.341,0.03,2.211,0.088,2.61
		c0.058,0.4,0.254,0.73,0.586,1c0.332,0.271,0.89,0.4,1.67,0.4c0.417,0,0.938-0.011,1.563-0.04v4.18
		c-1.224,0.27-2.344,0.41-3.36,0.41c-1.666,0-2.942-0.32-3.827-0.96c-0.886-0.64-1.452-1.44-1.7-2.399
		c-0.247-0.961-0.37-2.49-0.37-4.591v-7.85h-2.188v-4.341h2.188v-6.049L142.938,100.251z M178.64,105.171l-4.843,1.86
		c-0.69-2.2-1.953-3.301-3.79-3.301c-0.858,0-1.54,0.25-2.04,0.74s-0.752,1.061-0.752,1.711c0,0.76,0.296,1.359,0.89,1.81
		c0.59,0.45,1.832,1.04,3.72,1.77c1.72,0.64,3.07,1.271,4.053,1.9s1.777,1.479,2.383,2.55c0.606,1.07,0.91,2.32,0.91,3.74
		c0,2.49-0.85,4.529-2.57,6.119c-1.71,1.601-4,2.4-6.88,2.4c-4.83,0-7.91-2.439-9.26-7.32l5.12-1.461c0.63,2.68,2.05,4.02,4.28,4.02
		c1.02,0,1.84-0.26,2.47-0.79c0.63-0.522,0.95-1.22,0.95-2.08c0-0.649-0.22-1.229-0.66-1.75c-0.44-0.51-1.45-1.052-3.04-1.63
		c-2.04-0.73-3.57-1.391-4.57-1.98s-1.83-1.433-2.48-2.539c-0.65-1.101-0.97-2.351-0.97-3.761c0-2.39,0.77-4.352,2.32-5.883
		c1.55-1.53,3.59-2.3,6.13-2.3c4.64,0,7.53,2.07,8.67,6.21L178.64,105.171z M197.47,117.091h-10.333v1.091
		c0,1.77,0.24,2.949,0.72,3.549c0.48,0.601,1.11,0.9,1.888,0.9c1.673,0,2.614-1.12,2.822-3.359l4.902,0.319
		c-0.88,4.58-3.479,6.88-7.83,6.88c-2.68,0-4.72-0.899-6.11-2.71c-1.39-1.81-2.09-4.229-2.09-7.27c0-3.431,0.73-6.04,2.21-7.845
		c1.47-1.81,3.45-2.709,5.94-2.709c2.23,0,4.1,0.793,5.61,2.39c1.5,1.59,2.25,4.521,2.25,8.78L197.47,117.091z M192.274,113.911
		c0.013-0.229,0.02-0.41,0.02-0.54c0-2.54-0.856-3.811-2.568-3.811c-1.687,0-2.536,1.45-2.55,4.351H192.274z M200.692,106.321h4.844
		v4.77c0.872-3.35,2.428-5.021,4.668-5.021c0.273,0,0.586,0.031,0.938,0.101v5.37c-0.404-0.05-0.71-0.07-0.918-0.07
		c-2.683,0-4.023,2.03-4.023,6.09v8.5h-5.5V106.3L200.692,106.321z M211.942,106.321h5.297l2.71,11.63l2.74-11.63h4.58
		l-5.411,19.729h-4.36l-5.57-19.729H211.942z M234.247,104.701h-5.586v-5.45h5.59v5.45H234.247z M228.7,106.321h5.508v19.729H228.7
		V106.3V106.321z M252.979,113.591l-5.117,0.2c-0.07-1.21-0.271-2.12-0.58-2.74c-0.311-0.619-0.84-0.93-1.58-0.93
		c-1.85,0-2.77,1.939-2.77,5.82c0,2.25,0.229,3.83,0.68,4.729c0.449,0.9,1.119,1.351,2,1.351c1.38,0,2.14-1.221,2.27-3.65l5.12,0.33
		c-0.45,5.18-3.03,7.77-7.72,7.77c-2.53,0-4.471-0.855-5.82-2.57c-1.35-1.713-2.01-4.26-2.01-7.644c0-3.36,0.71-5.92,2.119-7.675
		c1.41-1.755,3.391-2.641,5.94-2.641c4.601,0,7.11,2.554,7.511,7.656L252.979,113.591z M271.143,117.111h-10.332v1.09
		c0,1.77,0.239,2.949,0.719,3.55c0.48,0.601,1.111,0.899,1.889,0.899c1.674,0,2.615-1.119,2.822-3.359l4.902,0.311
		c-0.871,4.59-3.48,6.879-7.822,6.879c-2.68,0-4.715-0.899-6.106-2.709c-1.391-1.811-2.087-4.23-2.087-7.261
		c0-3.425,0.738-6.04,2.214-7.84c1.479-1.806,3.46-2.71,5.94-2.71c2.24,0,4.109,0.8,5.609,2.391c1.5,1.6,2.26,4.52,2.26,8.779
		L271.143,117.111z M265.945,113.932c0.014-0.23,0.021-0.41,0.021-0.541c0-2.539-0.856-3.81-2.567-3.81
		c-1.688,0-2.537,1.45-2.551,4.36h5.098V113.932z M287.372,111.081l-3.926,1.17c-0.521-1.78-1.484-2.67-2.891-2.67
		c-1.146,0-1.72,0.58-1.72,1.72c0,0.65,0.215,1.15,0.645,1.49c0.431,0.34,1.32,0.74,2.66,1.21c1.511,0.54,2.62,1.01,3.32,1.41
		c0.71,0.409,1.3,1.021,1.78,1.83c0.479,0.81,0.729,1.75,0.729,2.808c0,1.826-0.649,3.355-1.97,4.59s-3.15,1.858-5.51,1.858
		c-4.44,0-6.9-1.96-7.38-5.88l4.379-0.7c0.371,1.97,1.4,2.95,3.11,2.95c1.46,0,2.19-0.61,2.19-1.834c0-0.65-0.21-1.141-0.64-1.48
		c-0.431-0.34-1.261-0.699-2.5-1.092c-2.261-0.73-3.82-1.605-4.671-2.634c-0.85-1.029-1.27-2.22-1.27-3.578
		c0-1.899,0.67-3.429,2.01-4.57c1.34-1.149,3.01-1.72,5.01-1.72c3.511,0,5.73,1.72,6.681,5.16L287.372,111.081z"/>
	<path fill="#0362AB" d="M6.57,27.525H18.4c2.777,0,4.872,0.22,6.285,0.66s2.598,1.405,3.555,2.895
		c0.956,1.49,1.435,3.343,1.435,5.56c0,3.877-1.65,6.366-4.95,7.466c3.926,1.388,5.89,4.224,5.89,8.506c0,2.25-0.533,4.15-1.6,5.7
		c-1.067,1.55-2.383,2.582-3.948,3.098c-1.566,0.517-3.788,0.774-6.665,0.774H6.57V27.525L6.57,27.525z M13.882,41.515h2.463
		c2.454,0,4-0.44,4.634-1.32c0.63-0.88,0.95-1.886,0.95-3.02c0-1.05-0.32-1.984-0.95-2.806c-0.64-0.83-2-1.24-4.08-1.24h-3.02v8.38
		L13.882,41.515z M13.882,56.242h3.732c3.504,0,5.256-1.51,5.256-4.532c0-1.68-0.436-2.864-1.308-3.552
		c-0.872-0.688-2.188-1.03-3.948-1.03h-3.732V56.242z M42.015,44.69l-6.78-0.66c0.322-2.574,1.418-4.554,3.29-5.942
		c1.87-1.388,4.227-2.082,7.07-2.082c2.403,0,4.333,0.46,5.79,1.384c1.455,0.923,2.373,1.993,2.754,3.212
		c0.381,1.219,0.57,3.106,0.57,5.662v10.232c0,3.183,0.14,5.078,0.43,5.688h-6.65c-0.24-0.694-0.36-2.006-0.36-3.936
		c-1.57,2.98-3.91,4.47-7.02,4.47c-2,0-3.62-0.598-4.87-1.79c-1.25-1.192-1.88-2.934-1.88-5.22c0-2.86,0.94-5.073,2.84-6.64
		c1.89-1.564,5.34-2.5,10.34-2.805v-0.965c0-1.71-0.18-2.895-0.52-3.555c-0.35-0.66-1.02-0.99-2.01-0.99
		c-1.82,0-2.82,1.313-3.01,3.936L42.015,44.69z M47.55,49.945c-2.082,0.236-3.567,0.696-4.456,1.38
		c-0.89,0.683-1.333,1.834-1.333,3.454c0,2.16,0.8,3.24,2.39,3.24c0.87,0,1.65-0.49,2.35-1.46c0.7-0.97,1.06-2.76,1.06-5.36v-1.27
		L47.55,49.945z M59.966,36.54h6.78v3.503c1.184-2.674,3.325-4.012,6.423-4.012c1.67,0,3.06,0.38,4.15,1.13
		c1.09,0.76,1.79,1.72,2.09,2.89c0.3,1.17,0.45,2.95,0.45,5.33v16.81h-7.16v-16.81c0-1.72-0.22-2.79-0.66-3.2
		c-0.44-0.4-1.04-0.61-1.78-0.61c-1.29,0-2.14,0.4-2.54,1.18c-0.4,0.78-0.61,2.26-0.61,4.41v15.03h-7.16v-25.65L59.966,36.54z
		 M84.772,27.525h7.16v18.904l7.205-9.9h6.506l-6.48,8.6l7.115,17.03h-7.732l-4.003-11.89l-2.61,3.58v8.3h-7.16V27.5L84.772,27.525z
		 M138.118,49.36c0,8.905-3.466,13.356-10.397,13.356c-6.94,0-10.42-4.452-10.42-13.355c0-8.88,3.48-13.33,10.43-13.33
		c6.93,0,10.4,4.45,10.4,13.33L138.118,49.36z M130.728,49.374c0-3.272-0.222-5.484-0.67-6.637c-0.448-1.153-1.226-1.73-2.338-1.73
		c-1.08,0-1.854,0.548-2.326,1.642c-0.472,1.09-0.708,3.33-0.708,6.72c0,3.13,0.202,5.31,0.606,6.53
		c0.405,1.22,1.214,1.83,2.428,1.83c1.163,0,1.955-0.61,2.376-1.82c0.423-1.22,0.633-3.4,0.633-6.55L130.728,49.374z M150.38,36.54
		h4.52v5.636h-4.52v20.008h-6.854V42.176h-2.92v-5.637h2.92c0.018-2.53,0.213-4.41,0.584-5.67c0.373-1.25,1.178-2.36,2.412-3.3
		c1.236-0.95,2.92-1.43,5.053-1.43c1.254,0,2.455,0.08,3.605,0.25v5.58c-0.574-0.07-1.107-0.1-1.6-0.1
		c-1.37,0-2.246,0.29-2.627,0.87c-0.381,0.58-0.572,1.84-0.572,3.77L150.38,36.54z M173.817,27.525h7.668l9.902,34.658h-7.79
		l-1.73-7.16h-9.76l-1.7,7.16h-7L173.817,27.525z M180.435,49.082l-3.503-14.2l-3.36,14.2H180.435z M193.647,36.54h6.78v3.503
		c1.218-2.674,3.29-4.012,6.22-4.012c3.047,0,4.892,1.34,5.535,4.02c1.153-2.67,3.23-4.01,6.233-4.01c1.68,0,3.014,0.31,4.006,0.92
		c1,0.61,1.69,1.45,2.08,2.5c0.39,1.06,0.59,3.05,0.59,5.98v16.76h-7.16v-16.02c0-1.91-0.13-3.15-0.4-3.73
		c-0.271-0.57-0.87-0.86-1.8-0.86c-1.11,0-1.84,0.38-2.18,1.13c-0.34,0.76-0.51,2.27-0.51,4.56v14.93h-7.16v-16.25
		c0-1.83-0.13-3.01-0.39-3.55c-0.26-0.54-0.86-0.81-1.79-0.81c-1.15,0-1.91,0.4-2.3,1.18c-0.39,0.78-0.57,2.29-0.57,4.51v14.93
		h-7.16v-25.65L193.647,36.54z M249.684,50.555h-13.432v1.417c0,2.294,0.313,3.83,0.936,4.605c0.625,0.776,1.443,1.164,2.455,1.164
		c2.176,0,3.398-1.45,3.668-4.36l6.381,0.41c-1.131,5.96-4.521,8.94-10.17,8.94c-3.48,0-6.131-1.17-7.94-3.53
		c-1.81-2.35-2.71-5.5-2.71-9.44c0-4.45,0.96-7.85,2.88-10.19c1.92-2.34,4.49-3.51,7.72-3.51c2.91,0,5.34,1.04,7.29,3.11
		c1.95,2.07,2.931,5.88,2.931,11.41L249.684,50.555z M242.93,46.415c0.019-0.304,0.025-0.54,0.025-0.71c0-3.3-1.113-4.95-3.338-4.95
		c-2.193,0-3.297,1.887-3.314,5.66H242.93z M253.873,36.54h6.297v6.194c1.135-4.35,3.158-6.525,6.068-6.525
		c0.354,0,0.762,0.04,1.22,0.12v6.98c-0.524-0.07-0.923-0.1-1.194-0.1c-3.486,0-5.229,2.64-5.229,7.92v11.04h-7.16v-25.64
		L253.873,36.54z M277.003,34.432h-7.26v-7.084h7.26V34.432z M269.793,36.539h7.16v25.64h-7.16V36.539z M301.354,45.979l-6.65,0.25
		c-0.104-1.58-0.356-2.77-0.763-3.57c-0.406-0.81-1.093-1.21-2.058-1.21c-2.401,0-3.604,2.52-3.604,7.56
		c0,2.93,0.293,4.98,0.877,6.14c0.584,1.16,1.45,1.75,2.602,1.75c1.795,0,2.777-1.59,2.945-4.75l6.651,0.43
		c-0.592,6.74-3.939,10.1-10.039,10.1c-3.299,0-5.82-1.12-7.57-3.34c-1.75-2.22-2.626-5.54-2.626-9.94c0-4.37,0.918-7.7,2.752-9.98
		c1.834-2.28,4.408-3.43,7.723-3.43c5.98,0,9.237,3.32,9.761,9.95V45.979z M312.093,44.679l-6.78-0.66
		c0.324-2.58,1.421-4.56,3.291-5.95c1.869-1.39,4.228-2.08,7.069-2.08c2.405,0,4.335,0.46,5.79,1.38
		c1.457,0.92,2.375,1.99,2.756,3.21c0.381,1.22,0.57,3.1,0.57,5.66v10.23c0,3.18,0.14,5.08,0.43,5.69h-6.649
		c-0.24-0.7-0.36-2.01-0.36-3.94c-1.57,2.98-3.91,4.47-7.02,4.47c-2,0-3.62-0.6-4.87-1.79s-1.88-2.94-1.88-5.22
		c0-2.86,0.939-5.07,2.84-6.64c1.89-1.57,5.34-2.5,10.34-2.81v-0.97c0-1.71-0.18-2.9-0.521-3.56c-0.34-0.66-1.02-0.99-2.01-0.99
		c-1.819,0-2.83,1.31-3.01,3.94L312.093,44.679z M317.629,49.929c-2.09,0.23-3.57,0.69-4.46,1.38c-0.89,0.68-1.34,1.83-1.34,3.45
		c0,2.16,0.79,3.24,2.38,3.24c0.86,0,1.64-0.49,2.35-1.46c0.7-0.97,1.051-2.76,1.051-5.36v-1.27L317.629,49.929z"/>
	<path fill="none" stroke="#E21C40" stroke-width="2" stroke-miterlimit="10" d="M6.48,78.568h433.77"/>
	<path fill="#E21C40" d="M395.737,59.507c0-1.095,0.396-2.033,1.188-2.815c0.792-0.783,1.74-1.174,2.847-1.174
		c1.11,0,2.061,0.39,2.854,1.174c0.792,0.782,1.188,1.72,1.188,2.815c0,1.1-0.396,2.04-1.188,2.82
		c-0.792,0.784-1.743,1.175-2.854,1.175c-1.109,0-2.06-0.39-2.85-1.174C396.132,61.546,395.737,60.605,395.737,59.507
		L395.737,59.507z M396.725,59.507c0,0.858,0.299,1.588,0.896,2.192c0.596,0.6,1.313,0.9,2.151,0.9c0.84,0,1.559-0.31,2.155-0.91
		c0.601-0.61,0.897-1.34,0.897-2.19c0-0.86-0.298-1.59-0.896-2.19c-0.6-0.61-1.319-0.91-2.159-0.91c-0.841,0-1.551,0.3-2.15,0.91
		c-0.6,0.6-0.9,1.33-0.9,2.18L396.725,59.507z M398.125,57.199h1.534c0.38,0,0.689,0.03,0.93,0.09s0.44,0.21,0.61,0.45
		c0.17,0.229,0.26,0.52,0.26,0.85c0,0.57-0.23,0.98-0.69,1.21l0.851,2.01h-1.37l-0.59-1.78h-0.311v1.78h-1.25v-4.62L398.125,57.199z
		 M399.377,58.049v1.14h0.287c0.38,0,0.57-0.2,0.57-0.59c0-0.37-0.203-0.55-0.61-0.55H399.377z"/>
</g>
</svg>
