<?xml version="1.0" encoding="utf-8"?>
<!-- Generator: Adobe Illustrator 20.0.0, SVG Export Plug-In . SVG Version: 6.00 Build 0)  -->
<svg version="1.1" id="Layer_1" xmlns="http://www.w3.org/2000/svg" xmlns:xlink="http://www.w3.org/1999/xlink" x="0px" y="0px"
	 viewBox="0 0 792 612" style="enable-background:new 0 0 792 612;" xml:space="preserve">
<style type="text/css">
	.st0{fill:#014386;}
</style>
<path class="st0" d="M35.6,341.2c-24.5-11.1-60.6-26.7-82.4-34.6c71.4-41.4,143-75.6,225.5-105.3c22.2,6.8,54.3,17.5,79.1,26.5
	C190.9,253.2,104.6,297.3,35.6,341.2 M143,393.3c61.8-45,138.7-93.2,210.4-129c-27.3-10.9-57.9-22.8-79.1-30.5
	c-58.6,23.3-144.6,68.2-217.7,117C86.4,364.5,114.8,377.8,143,393.3 M354.5,128c-24.5,5.3-59.4,14.5-81.2,20.8
	c53.9,13.2,140,38.8,198.8,62.2c24.9-9.7,55.6-20.2,80.1-27.3C482.1,156.2,395.2,135.8,354.5,128 M166.1,185.4
	c50.6,13.7,132.2,41.4,204.2,70.4c28.5-13.9,54.6-25.7,82.9-37.3c-68.5-27.9-154.7-53.4-198.2-64.3
	C223.4,163.7,193.9,173.6,166.1,185.4 M146.9,421.9c31.9,15.4,73.5,40.6,102.1,58.1c140.3-119.5,313.4-215.1,447.2-258.6
	c-41-16.6-78.1-30.7-103.7-38.2C437,226.8,268.3,325.8,146.9,421.9 M713.8,228.7c-152.4,54.6-321.1,163.4-437.4,268.4
	c38.1,24.3,78.8,51.3,116.2,77.4c93-87.9,274-230.8,433.3-295.1C785,258.9,744.6,241.4,713.8,228.7"/>
<g>
</g>
<g>
</g>
<g>
</g>
<g>
</g>
<g>
</g>
<g>
</g>
</svg>
